<svg height="24" viewBox="0 0 22 24" width="22" xmlns="http://www.w3.org/2000/svg"><g fill="none" fill-rule="evenodd" stroke="#4d4d4d" stroke-width="1.5" transform="translate(1 1)"><g transform="translate(0 15.4)"><path d="m2.2 4.4-1.28294737-4.4h18.38273687c-.9839739 2.83629367-1.5505704 4.30296033-1.6997895 4.4" fill="#fff" stroke-linejoin="round"/><path d="m0 5.59726316c1.26094737 0 1.26094737-1.31305263 2.52189474-1.31305263s1.26094737 1.31305263 2.52189473 1.31305263c1.26094737 0 1.26094737-1.31305263 2.52189474-1.31305263s1.26094737 1.31305263 2.52189469 1.31305263c1.2609474 0 1.2609474-1.31305263 2.5218948-1.31305263s1.2609474 1.31305263 2.5218947 1.31305263c1.2609474 0 1.2609474-1.31305263 2.5218948-1.31305263 1.2609473 0 1.2609473 1.31305263 2.5218947 1.31305263" stroke-linecap="round"/></g><g fill="#fff" stroke-linejoin="round"><path d="m12 4.96v8.2399993h4.708571c-3.1390473-5.49333288-4.708571-8.2399993-4.708571-8.2399993z"/><path d="m1.76 0s.05641026 4.4.16923077 13.2h7.31076923c-4.98666667-8.8-7.48-13.2-7.48-13.2z" transform="matrix(-1 0 0 1 11 0)"/></g></g></svg>