<svg height="98" viewBox="0 0 98 98" width="98" xmlns="http://www.w3.org/2000/svg"><g fill="none" transform="translate(9.963333 9.963333)"><g fill="#4d4d4d"><path d="m16.17 29.0733333c4.5733333 0 8.33 3.7566667 8.33 8.33h2.94c0-6.2066666-5.0633333-11.27-11.27-11.27zm-8.33 8.33c0-4.5733333 3.7566667-8.33 8.33-8.33v-2.94c-6.20666667 0-11.27 5.0633334-11.27 11.27zm8.33 8.33c-4.5733333 0-8.33-3.7566666-8.33-8.33h-2.94c0 6.2066667 5.06333333 11.27 11.27 11.27zm8.33-8.33c0 4.5733334-3.7566667 8.33-8.33 8.33v2.94c6.2066667 0 11.27-5.0633333 11.27-11.27z"/><path d="m5.88117417 32.5103189h29.39912163v2.9399122h-29.39912163z" transform="matrix(.96592886 -.25880773 .25880773 .96592886 -8.093149 6.4842)"/><path d="m32.34 74.97v-.6533333h-2.94v.6533333zm-30.87 1.47h29.4v-2.94h-29.4zm-1.47-3.1033333v1.6333333h2.94v-1.6333333zm16.17-22.7033334c-8.98333333 0-16.17 7.1866667-16.17 16.17h2.94c0-7.35 5.88-13.23 13.23-13.23zm0 2.94c7.35 0 13.23 5.88 13.23 13.23h2.94c0-8.9833333-7.1866667-16.17-16.17-16.17zm-13.23 19.7633334v-6.5333334h-2.94v6.5333334zm26.46-6.5333334v7.5133334h2.94v-7.5133334zm1.47 8.1666667v1.47h1.47v-1.47zm-29.4 0h-1.47v1.47h1.47zm0-8.1666667h-1.47zm0 6.5333334h1.47z"/><path d="m78.0733333 74.97v-1.6333333h-2.94v1.6333333zm-30.87 1.47h29.4v-2.94h-29.4zm-1.47-3.1033333v1.6333333h2.94v-1.6333333zm16.17-19.4366667c-8.9833333 0-16.17 7.1866667-16.17 16.17h2.94c0-7.35 5.88-13.23 13.23-13.23zm0 2.94c7.35 0 13.23 5.88 13.23 13.23h2.94c0-8.9833333-7.1866666-16.17-16.17-16.17zm-13.23 16.4966667v-3.2666667h-2.94v3.2666667zm26.46-3.2666667v3.2666667h2.94v-3.2666667zm1.47 4.9v1.47h1.47v-1.47zm-29.4 0h-1.47v1.47h1.47z"/><path d="m53.9 1.47h2.94v55.533333h-2.94z"/></g><path d="m24.3366667 68.4366667c-4.5733334 0-8.1666667-3.5933334-8.1666667-8.1666667h-9.8c0 9.9633333 8.0033333 17.9666667 17.9666667 17.9666667zm8.1666666-8.1666667c0 4.5733333-3.5933333 8.1666667-8.1666666 8.1666667v9.8c9.9633333 0 17.9666666-8.0033334 17.9666666-17.9666667z" fill="#fff"/><path d="m38.8733333 60.27v-4.0833333h-2.94v4.0833333zm-14.5366666 11.5966667c-6.37 0-11.5966667-5.2266667-11.5966667-11.5966667h-2.94c0 8.0033333 6.5333333 14.5366667 14.5366667 14.5366667zm11.5966666-11.5966667c0 6.37-5.2266666 11.5966667-11.5966666 11.5966667v2.94c8.0033333 0 14.5366666-6.5333334 14.5366666-14.5366667z" fill="#4d4d4d"/><path d="m39.0366667 39.2c-2.6133334 0-4.7366667 2.1233333-4.7366667 4.7366667h2.94c0-.98.8166667-1.7966667 1.7966667-1.7966667zm3.2666666 2.94c.98 0 1.7966667.8166667 1.7966667 1.7966667h2.94c0-2.6133334-2.1233333-4.7366667-4.7366667-4.7366667zm1.7966667 11.5966667c0 .98-.8166667 1.7966666-1.7966667 1.7966666v2.94c2.6133334 0 4.7366667-2.1233333 4.7366667-4.7366666zm-5.0633333 1.7966666c-.98 0-1.7966667-.8166666-1.7966667-1.7966666h-2.94c0 2.6133333 2.1233333 4.7366666 4.7366667 4.7366666zm-1.7966667-1.7966666v-9.8h-2.94v9.8zm5.0633333 1.7966666h-3.2666666v2.94h3.2666666zm1.7966667-11.5966666v9.8h2.94v-9.8zm-5.0633333-1.7966667h3.2666666v-2.94h-3.2666666z" fill="#4d4d4d"/><path d="m39.036667 43.936667h3.266667v2.94h-3.266667z" fill="#4d4d4d"/><circle cx="61.903333" cy="40.67" fill="#fff" r="9.8"/><path d="m61.9033333 32.34c4.5733334 0 8.33 3.7566667 8.33 8.33h2.94c0-6.2066667-5.0633333-11.27-11.27-11.27zm-8.33 8.33c0-4.5733333 3.7566667-8.33 8.33-8.33v-2.94c-6.2066666 0-11.27 5.0633333-11.27 11.27zm8.33 8.33c-4.5733333 0-8.33-3.7566667-8.33-8.33h-2.94c0 6.2066667 5.0633334 11.27 11.27 11.27zm8.33-8.33c0 4.5733333-3.7566666 8.33-8.33 8.33v2.94c6.2066667 0 11.27-5.0633333 11.27-11.27z" fill="#4d4d4d"/><path d="m52.1033333 42.4666667c6.37 0 11.5966667-5.2266667 11.5966667-11.5966667h2.94c0 8.0033333-6.5333333 14.5366667-14.5366667 14.5366667z" fill="#4d4d4d"/><path d="m53.9 12.9033333v-11.4333333h2.94v11.4333333zm-23.03 6.6966667c3.1033333 0 5.2266667-.49 7.0233333-1.1433333 1.6333334-.6533334 2.94-1.6333334 4.41-2.6133334s2.94-2.1233333 5.0633334-2.94c2.1233333-.8166666 4.5733333-1.3066666 8.0033333-1.3066666v2.94c-3.1033333 0-5.2266667.49-7.0233333 1.1433333-1.6333334.6533333-2.94 1.6333333-4.41 2.6133333s-2.94 2.1233334-5.0633334 2.94c-2.1233333.8166667-4.5733333 1.3066667-8.0033333 1.3066667zm1.47-9.96333333v11.43333333h-2.94v-11.43333333zm23.03-6.69666667c-3.1033333 0-5.2266667.49-7.0233333 1.14333333-1.6333334.65333334-2.94 1.63333334-4.41 2.61333334s-2.94 2.12333333-5.0633334 2.94c-2.1233333.81666663-4.5733333 1.30666663-8.0033333 1.30666663v-2.93999997c3.1033333 0 5.2266667-.49 7.0233333-1.14333333 1.6333334-.65333333 2.94-1.63333333 4.41-2.61333333s2.94-2.12333334 5.0633334-2.94c2.1233333-.81666667 4.5733333-1.30666667 8.0033333-1.30666667zm0 9.9633333h1.47v1.47h-1.47zm-24.5 8.1666667v1.47h-1.47v-1.47zm0-11.43333333h-1.47v-1.47h1.47zm24.5-8.16666667v-1.47h1.47v1.47z" fill="#4d4d4d"/></g></svg>