<svg height="56" viewBox="0 0 160 56" width="160" xmlns="http://www.w3.org/2000/svg" xmlns:xlink="http://www.w3.org/1999/xlink"><linearGradient id="a" x1="-26.697805%" x2="105.341972%" y1="14.240398%" y2="91.297291%"><stop offset="0" stop-color="#f42525"/><stop offset="1" stop-color="#a01d1d"/></linearGradient><linearGradient id="b"><stop offset="0" stop-color="#ef4351"/><stop offset="1" stop-color="#c11414"/></linearGradient><linearGradient id="c" x1="-23.687619%" x2="99.99181%" xlink:href="#b" y1="49.991287%" y2="49.991287%"/><linearGradient id="d" x1="-.016943%" x2="99.993377%" xlink:href="#b" y1="49.987321%" y2="49.987321%"/><linearGradient id="e"><stop offset="0" stop-color="#222"/><stop offset="1" stop-color="#022222" stop-opacity="0"/></linearGradient><linearGradient id="f" x1="46.128692%" x2="50.228539%" xlink:href="#e" y1="-199.430155%" y2="68.012629%"/><linearGradient id="g" x1="46.546724%" x2="50.143081%" xlink:href="#e" y1="-201.40567%" y2="66.037113%"/><linearGradient id="h" x1="45.055385%" x2="49.682821%" xlink:href="#e" y1="-200.919166%" y2="63.787648%"/><linearGradient id="i" x1="46.5906%" x2="50.2%" xlink:href="#e" y1="-198.54525%" y2="60.8745%"/><linearGradient id="j" x1="45.438221%" x2="49.489893%" xlink:href="#e" y1="-208.250258%" y2="59.192784%"/><linearGradient id="k" x1="46.711724%" x2="50.86046%" xlink:href="#e" y1="-156.976598%" y2="55.796061%"/><linearGradient id="l" x1="45.808601%" x2="49.908448%" xlink:href="#e" y1="-212.314948%" y2="55.127835%"/><g fill="none"><g><path d="m28.2779101 41.3342499 17.3434962 12.6449461-6.5606484-20.6129943 17.3434962-12.1902476h-21.0893449l-7.0369991-21.08934488-7.0153468 21.08934488h-21.08934486l17.32184386 12.1902476-6.5606484 20.6129943z" fill="url(#a)"/><path d="m29.6636576 42.330256 9.9384079-7.2535222-4.1572425-11.8871153-8.0763097 17.47341z" fill="#931b1b"/><path d="m17.3868008 33.2795925.1082615.0866092-6.5606484 20.6129943 17.3434962-12.6449461 10.7828478-7.9680482 2.4250582-1.710532 14.918438-10.4797156-38.9741487 12.1252907z" fill="url(#c)"/><path d="m21.2625633 21.1759541h-9.1589249-11.93041996l17.21358236 12.1036384.0433046.0216523 38.9741487-12.1252907h-21.0893449z" fill="url(#d)"/><path d="m21.2625633 21.1759541h-9.1589249-11.93041996l17.21358236 12.1036384.0433046.0216523 38.9741487-12.1252907h-21.0893449z" fill="#fff" opacity=".11"/></g><g fill="#222" transform="translate(56 28.965517)"><path d="m8.20885104 12.9410122-2.41436795-3.47668982h-.12876629-2.51094267v3.47668982h-2.89724155v-12.49033018h5.40818422c1.09451347 0 2.06026065.19314943 2.86504997.54725673.80478931.3541073 1.44862077.90136404 1.86711123 1.57738707.450682.67602302.6438314 1.48081234.6438314 2.41436795s-.225341 1.73834493-.676023 2.38217638c-.45068201.67602303-1.09451346 1.19108819-1.89930278 1.54519549l2.80066678 4.02394656zm-.74040617-9.56089707c-.45068202-.38629887-1.12670505-.54725673-1.96368594-.54725673h-2.3499848v4.34586231h2.3499848c.86917247 0 1.51300392-.19314943 1.96368594-.57944831.45068202-.38629887.67602302-.90136403.67602302-1.60957863 0-.67602303-.225341-1.22327976-.67602302-1.60957864z"/><path d="m24.8197026 12.9410122h-9.6574719v-12.49033018h9.4321308v2.31779323h-6.5670808v2.70409211h5.7944831v2.25341009h-5.7944831v2.89724155h6.7924219z"/><path d="m28.8758407.48287359h5.6657168c1.3520461 0 2.5431343.25753258 3.6054562.77259775 1.0301303.51506516 1.8349196 1.25547133 2.4143679 2.18902694s.8691725 2.02806908.8691725 3.28354042c0 1.25547133-.2897242 2.3499848-.8691725 3.2835404s-1.3842376 1.6739618-2.4143679 2.189027c-1.0301304.5150651-2.2534101.7725977-3.6054562.7725977h-5.6657168zm5.5369505 10.10815381c1.2554714 0 2.2534101-.3541073 2.9938163-1.03013031.7404062-.7082146 1.126705-1.6417702 1.126705-2.83285839s-.3862988-2.1246438-1.126705-2.8328584-1.7383449-1.03013033-2.9938163-1.03013033h-2.6397089v7.72597743z"/><path d="m53.4702023 12.7800544c-.9335556-.2575326-1.6739618-.6116399-2.2212186-1.0301304l.9657472-2.18902691c.5472568.38629888 1.1588966.70821461 1.8993028.93355561s1.4808124.3541073 2.2212185.3541073c.8047894 0 1.4164292-.1287663 1.8027281-.3541073.3862989-.2575326.5794483-.57944831.5794483-.96574718 0-.28972415-.1287663-.54725673-.3541073-.74040617s-.5150651-.3541073-.901364-.48287359c-.3541073-.12876629-.8369809-.25753258-1.4808124-.38629887-.9657471-.22534101-1.7383449-.45068202-2.3499848-.67602303s-1.126705-.57944831-1.5451955-1.09451347c-.4184904-.51506517-.6438314-1.15889662-.6438314-1.99587751 0-.74040617.1931494-1.38423763.5794483-1.96368594.3862989-.5794483.9979387-1.0623219 1.7705365-1.38423762.8047893-.3541073 1.7705365-.51506517 2.8972415-.51506517.8047894 0 1.5773871.09657472 2.3499848.28972416.7725978.19314944 1.4164292.45068202 1.9958776.80478932l-.9013641 2.18902694c-1.1588966-.64383145-2.3177932-.96574718-3.4444983-.96574718-.8047893 0-1.4164292.12876629-1.802728.38629887-.3862989.25753258-.5794483.61163988-.5794483 1.03013033 0 .41849044.225341.74040617.676023.96574718.450682.19314944 1.126705.41849044 2.0280691.61163988.9657471.22534101 1.7383449.45068202 2.3499848.67602303s1.126705.57944831 1.5451955 1.0623219c.4184904.48287359.6438314 1.15889661.6438314 1.96368593 0 .70821459-.1931494 1.35204609-.6116399 1.96368589-.3862988.5794484-.9979387 1.0623219-1.802728 1.3842377-.8047894.3219157-1.7705365.5150651-2.8972416.5150651-.901364 0-1.8349196-.1287663-2.7684752-.3862988z"/><path d="m67.7954521 2.8328584h-3.991755v-2.34998481h10.8807516v2.34998481h-3.991755v10.1403454h-2.8972416z"/><path d="m85.5973918 10.2691117h-5.7944831l-1.0945134 2.6719005h-2.9616247l5.5691421-12.49033018h2.8650499l5.5691421 12.49033018h-3.0260078zm-.901364-2.18902695-1.9636859-4.76435276-1.963686 4.76435276z"/><path d="m100.791814 12.9410122-2.4143678-3.47668982h-.1287663-2.5109427v3.47668982h-2.8972415v-12.49033018h5.4081842c1.0945135 0 2.0602611.19314943 2.8650501.54725673s1.448621.90136404 1.867111 1.57738707c.450682.67602302.643832 1.48081234.643832 2.41436795s-.225341 1.73834493-.676023 2.38217638c-.450683.67602303-1.094514 1.19108819-1.899303 1.54519549l2.800667 4.02394656zm-.740406-9.56089707c-.450682-.38629887-1.1267051-.54725673-1.963686-.54725673h-2.3499848v4.34586231h2.3499848c.8691725 0 1.513004-.19314943 1.963686-.57944831.450682-.38629887.676023-.90136403.676023-1.60957863 0-.67602303-.225341-1.22327976-.676023-1.60957864z"/></g><g transform="translate(56 41.52023)"><path d="m11.299242.41849045-2.80066681 4.02394658c.80478932.3541073 1.44862078.86917247 1.89930281 1.54519549.450682.67602303.676023 1.48081235.676023 2.38217638 0 .93355561-.225341 1.7383449-.6438314 2.414368-.45068206.676023-1.06232194 1.1910881-1.86711126 1.577387-.80478932.3541073-1.7705365.5472568-2.86504997.5472568h-5.40818422v-12.49033025h2.89724155v3.47668985h2.51094267.12876629l2.41436795-3.47668985zm-3.15477411 7.95131845c0-.67602302-.225341-1.22327976-.67602302-1.60957863s-1.12670505-.57944831-1.96368594-.57944831h-2.3499848v4.34586234h2.3499848c.86917247 0 1.51300392-.1931495 1.96368594-.54725676.45068202-.38629887.67602302-.93355561.67602302-1.60957864z" fill="url(#f)"/><path d="m18.0272807 2.73628368v2.89724154h5.7944831v2.25341009h-5.7944831v2.70409209h6.5670808v2.3177933h-9.4321308v-12.49033025h9.6574719v2.31779323z" fill="url(#g)"/><path d="m28.9080323.41849045h5.6657168c1.352046 0 2.5431342.25753258 3.6054561.77259774 1.0301304.51506516 1.8349197 1.25547134 2.414368 2.18902694.5794483.93355561.8691724 2.02806908.8691724 3.28354042s-.2897241 2.34998481-.8691724 3.28354042c-.5794483.93355563-1.3842376 1.67396173-2.414368 2.18902693-1.0301303.5150652-2.2534101.7725978-3.6054561.7725978h-5.6657168zm2.86505 2.3499848v7.72597745h2.6397089c1.2554714 0 2.2534101-.3541073 2.9938163-1.03013032.7404062-.7082146 1.126705-1.64177021 1.126705-2.8328584s-.3862988-2.1246438-1.126705-2.8328584-1.7383449-1.03013033-2.9938163-1.03013033z" fill="url(#h)"/><path d="m56.3352522.19314944c1.1267051 0 2.1246438.16095786 2.8972416.51506516.8047893.3541073 1.3842376.80478932 1.8027281 1.38423763.3862988.5794483.6116398 1.22327976.6116398 1.96368593 0 .83698089-.225341 1.48081235-.6438314 1.96368594-.4184905.48287359-.9657472.83698089-1.5451955 1.0623219-.6116399.225341-1.3842376.45068201-2.3499848.67602302-.9013641.19314944-1.6095787.41849045-2.0280691.61163988-.450682.19314944-.676023.51506517-.676023.96574718 0 .41849045.1931494.77259772.5794483 1.03013032s.9979387.3862989 1.8027281.3862989c1.1588966 0 2.3177932-.3219157 3.4444982-.9657472l.9013641 2.1890269c-.5794483.3541073-1.2232798.6438315-1.9958775.8047894-.7725978.1931494-1.5451955.2897241-2.3499848.2897241-1.1267051 0-2.0924523-.1609578-2.8972416-.5150651s-1.3842376-.8047894-1.7705365-1.3842377-.5794483-1.25547131-.5794483-1.96368591c0-.83698089.225341-1.51300391.6438315-1.9958775.4184904-.51506517.9657471-.86917247 1.5451954-1.09451348.6116399-.225341 1.3842377-.45068201 2.3499849-.67602302.6116398-.12876629 1.0945134-.28972416 1.4808123-.38629888.3541073-.12876629.6438315-.28972415.901364-.48287359.225341-.19314943.3541073-.45068201.3541073-.74040617 0-.41849044-.1931494-.74040617-.5794483-.96574718-.3862988-.25753258-.9979387-.3541073-1.802728-.3541073-.7404062 0-1.4808124.12876629-2.2212186.3541073-.7404061.22534101-1.3842376.54725674-1.8993028.93355561l-.9657471-2.18902694c.5472567-.41849045 1.2876629-.77259775 2.2212185-1.03013033.8369809-.25753258 1.7705365-.38629887 2.7684752-.38629887z" fill="url(#i)"/><path d="m67.7954521.41849045h2.8972416v10.14034535h3.991755v2.3499849h-10.8807516v-2.3499849h3.991755z" fill="url(#j)"/><path d="m86.7240969.41849045h3.0260078l-5.5691421 12.49033025h-2.8650499l-5.5691421-12.49033025h2.9616247l1.0945134 2.67190053h5.7944831zm-5.9876326 4.86092747 1.963686 4.76435278 1.9636859-4.76435278z" fill="url(#k)"/><path d="m103.882205.41849045-2.800667 4.02394658c.80479.3541073 1.448621.86917247 1.899303 1.54519549.450682.67602303.676023 1.48081235.676023 2.38217638 0 .93355561-.225341 1.7383449-.643831 2.414368-.450682.676023-1.062322 1.1910881-1.867112 1.577387-.804789.3541073-1.7705361.5472568-2.8650495.5472568h-5.4081842v-12.49033025h2.8972415v3.47668985h2.5109427.1287663l2.4143682-3.47668985zm-3.154774 7.95131845c0-.67602302-.225341-1.22327976-.676023-1.60957863s-1.1267051-.57944831-1.963686-.57944831h-2.3499848v4.34586234h2.3499848c.8691725 0 1.513004-.1931495 1.963686-.54725676.450682-.38629887.676023-.93355561.676023-1.60957864z" fill="url(#l)"/></g></g></svg>