<?xml version="1.0" encoding="UTF-8"?>
<svg width="160px" height="56px" viewBox="0 0 160 56" version="1.1" xmlns="http://www.w3.org/2000/svg" xmlns:xlink="http://www.w3.org/1999/xlink">
    <title>logo_black</title>
    <defs>
        <linearGradient x1="-26.6978052%" y1="14.2403983%" x2="105.341972%" y2="91.2972909%" id="linearGradient-1">
            <stop stop-color="#F42525" offset="0%"></stop>
            <stop stop-color="#A01D1D" offset="100%"></stop>
        </linearGradient>
        <linearGradient x1="-23.687619%" y1="49.9912871%" x2="99.9918095%" y2="49.9912871%" id="linearGradient-2">
            <stop stop-color="#EF4351" offset="0%"></stop>
            <stop stop-color="#C11414" offset="100%"></stop>
        </linearGradient>
        <linearGradient x1="-0.0169426261%" y1="49.9873214%" x2="99.993377%" y2="49.9873214%" id="linearGradient-3">
            <stop stop-color="#EF4351" offset="0%"></stop>
            <stop stop-color="#C11414" offset="100%"></stop>
        </linearGradient>
        <linearGradient x1="46.1286919%" y1="-199.430155%" x2="50.2285392%" y2="68.0126289%" id="linearGradient-4">
            <stop stop-color="#222222" offset="0%"></stop>
            <stop stop-color="#022222" stop-opacity="0" offset="100%"></stop>
        </linearGradient>
        <linearGradient x1="46.5467239%" y1="-201.40567%" x2="50.1430811%" y2="66.0371134%" id="linearGradient-5">
            <stop stop-color="#222222" offset="0%"></stop>
            <stop stop-color="#022222" stop-opacity="0" offset="100%"></stop>
        </linearGradient>
        <linearGradient x1="45.0553846%" y1="-200.919166%" x2="49.6828205%" y2="63.7876476%" id="linearGradient-6">
            <stop stop-color="#222222" offset="0%"></stop>
            <stop stop-color="#022222" stop-opacity="0" offset="100%"></stop>
        </linearGradient>
        <linearGradient x1="46.5906%" y1="-198.54525%" x2="50.2%" y2="60.8745%" id="linearGradient-7">
            <stop stop-color="#222222" offset="0%"></stop>
            <stop stop-color="#022222" stop-opacity="0" offset="100%"></stop>
        </linearGradient>
        <linearGradient x1="45.4382214%" y1="-208.250258%" x2="49.4898927%" y2="59.1927835%" id="linearGradient-8">
            <stop stop-color="#222222" offset="0%"></stop>
            <stop stop-color="#022222" stop-opacity="0" offset="100%"></stop>
        </linearGradient>
        <linearGradient x1="46.7117241%" y1="-156.976598%" x2="50.8604598%" y2="55.7960608%" id="linearGradient-9">
            <stop stop-color="#222222" offset="0%"></stop>
            <stop stop-color="#022222" stop-opacity="0" offset="100%"></stop>
        </linearGradient>
        <linearGradient x1="45.8086008%" y1="-212.314948%" x2="49.908448%" y2="55.1278351%" id="linearGradient-10">
            <stop stop-color="#222222" offset="0%"></stop>
            <stop stop-color="#022222" stop-opacity="0" offset="100%"></stop>
        </linearGradient>
    </defs>
    <g id="Design" stroke="none" stroke-width="1" fill="none" fill-rule="evenodd">
        <g id="ГЛАВНАЯ" transform="translate(-81.000000, -11.000000)" fill-rule="nonzero">
            <g id="Menu-main" transform="translate(1.000000, 0.000000)">
                <g id="logo_black" transform="translate(80.000000, 11.000000)">
                    <g id="Group">
                        <g id="star-rate_7_" fill="url(#linearGradient-1)">
                            <polygon id="Path" points="28.2779101 41.3342499 45.6214063 53.979196 39.0607579 33.3662017 56.4042541 21.1759541 35.3149092 21.1759541 28.2779101 0.0866092193 21.2625633 21.1759541 0.173218439 21.1759541 17.4950623 33.3662017 10.9344139 53.979196"></polygon>
                        </g>
                        <polygon id="Path" fill="#931B1B" points="29.6636576 42.330256 39.6020655 35.0767338 35.444823 23.1896185 27.3685133 40.6630285"></polygon>
                        <polygon id="Path" fill="url(#linearGradient-2)" points="17.3868008 33.2795925 17.4950623 33.3662017 10.9344139 53.979196 28.2779101 41.3342499 39.0607579 33.3662017 41.4858161 31.6556697 56.4042541 21.1759541 17.4301054 33.3012448"></polygon>
                        <polygon id="Path" fill="url(#linearGradient-3)" points="21.2625633 21.1759541 12.1036384 21.1759541 0.173218439 21.1759541 17.3868008 33.2795925 17.4301054 33.3012448 56.4042541 21.1759541 35.3149092 21.1759541"></polygon>
                        <polygon id="Path" fill="#FFFFFF" opacity="0.11" points="21.2625633 21.1759541 12.1036384 21.1759541 0.173218439 21.1759541 17.3868008 33.2795925 17.4301054 33.3012448 56.4042541 21.1759541 35.3149092 21.1759541"></polygon>
                    </g>
                    <g id="Group" transform="translate(56.000000, 28.965517)">
                        <g fill="#222222">
                            <path d="M8.20885104,12.9410122 L5.79448309,9.46432238 L5.6657168,9.46432238 L3.15477413,9.46432238 L3.15477413,12.9410122 L0.257532582,12.9410122 L0.257532582,0.450682018 L5.6657168,0.450682018 C6.76023027,0.450682018 7.72597745,0.643831454 8.53076677,0.997938754 C9.33555608,1.35204605 9.97938754,1.89930279 10.397878,2.57532582 C10.84856,3.25134884 11.0417094,4.05613816 11.0417094,4.98969377 C11.0417094,5.92324938 10.8163684,6.7280387 10.3656864,7.37187015 C9.91500439,8.04789318 9.27117294,8.56295834 8.46638362,8.91706564 L11.2670504,12.9410122 L8.20885104,12.9410122 L8.20885104,12.9410122 Z M7.46844487,3.38011513 C7.01776285,2.99381626 6.34173982,2.8328584 5.50475893,2.8328584 L3.15477413,2.8328584 L3.15477413,7.17872071 L5.50475893,7.17872071 C6.3739314,7.17872071 7.01776285,6.98557128 7.46844487,6.5992724 C7.91912689,6.21297353 8.14446789,5.69790837 8.14446789,4.98969377 C8.14446789,4.31367074 7.91912689,3.76641401 7.46844487,3.38011513 Z" id="Shape"></path>
                            <polygon id="Path" points="24.8197026 12.9410122 15.1622307 12.9410122 15.1622307 0.450682018 24.5943615 0.450682018 24.5943615 2.76847525 18.0272807 2.76847525 18.0272807 5.47256736 23.8217638 5.47256736 23.8217638 7.72597745 18.0272807 7.72597745 18.0272807 10.623219 24.8197026 10.623219"></polygon>
                            <path d="M28.8758407,0.482873591 L34.5415575,0.482873591 C35.8936036,0.482873591 37.0846918,0.740406172 38.1470137,1.25547134 C39.177144,1.7705365 39.9819333,2.51094267 40.5613816,3.44449828 C41.1408299,4.37805389 41.4305541,5.47256736 41.4305541,6.7280387 C41.4305541,7.98351003 41.1408299,9.0780235 40.5613816,10.0115791 C39.9819333,10.9451347 39.177144,11.6855409 38.1470137,12.2006061 C37.1168833,12.7156712 35.8936036,12.9732038 34.5415575,12.9732038 L28.8758407,12.9732038 L28.8758407,0.482873591 Z M34.4127912,10.5910274 C35.6682626,10.5910274 36.6662013,10.2369201 37.4066075,9.56089709 C38.1470137,8.85268249 38.5333125,7.91912689 38.5333125,6.7280387 C38.5333125,5.53695051 38.1470137,4.6033949 37.4066075,3.8951803 C36.6662013,3.1869657 35.6682626,2.86504997 34.4127912,2.86504997 L31.7730823,2.86504997 L31.7730823,10.5910274 L34.4127912,10.5910274 Z" id="Shape"></path>
                            <path d="M53.4702023,12.7800544 C52.5366467,12.5225218 51.7962405,12.1684145 51.2489837,11.749924 L52.2147309,9.56089709 C52.7619877,9.94719597 53.3736275,10.2691117 54.1140337,10.4944527 C54.8544399,10.7197937 55.5948461,10.84856 56.3352522,10.84856 C57.1400416,10.84856 57.7516814,10.7197937 58.1379803,10.4944527 C58.5242792,10.2369201 58.7174286,9.91500439 58.7174286,9.52870552 C58.7174286,9.23898137 58.5886623,8.98144879 58.3633213,8.78829935 C58.1379803,8.59514991 57.8482562,8.43419205 57.4619573,8.30542576 C57.10785,8.17665947 56.6249764,8.04789318 55.9811449,7.91912689 C55.0153978,7.69378588 54.2428,7.46844487 53.6311601,7.24310386 C53.0195202,7.01776285 52.5044551,6.66365555 52.0859646,6.14859039 C51.6674742,5.63352522 51.4421332,4.98969377 51.4421332,4.15271288 C51.4421332,3.41230671 51.6352826,2.76847525 52.0215815,2.18902694 C52.4078804,1.60957864 53.0195202,1.12670504 53.792118,0.804789318 C54.5969073,0.450682018 55.5626545,0.289724154 56.6893595,0.289724154 C57.4941489,0.289724154 58.2667466,0.386298872 59.0393443,0.579448309 C59.8119421,0.772597745 60.4557735,1.03013033 61.0352219,1.38423763 L60.1338578,3.57326457 C58.9749612,2.92943312 57.8160646,2.60751739 56.6893595,2.60751739 C55.8845702,2.60751739 55.2729303,2.73628368 54.8866315,2.99381626 C54.5003326,3.25134884 54.3071832,3.60545614 54.3071832,4.02394659 C54.3071832,4.44243703 54.5325242,4.76435276 54.9832062,4.98969377 C55.4338882,5.18284321 56.1099112,5.40818421 57.0112753,5.60133365 C57.9770224,5.82667466 58.7496202,6.05201567 59.3612601,6.27735668 C59.9729,6.50269769 60.4879651,6.85680499 60.9064556,7.33967858 C61.324946,7.82255217 61.550287,8.49857519 61.550287,9.30336451 C61.550287,10.0115791 61.3571376,10.6554106 60.9386471,11.2670504 C60.5523483,11.8464988 59.9407084,12.3293723 59.1359191,12.6512881 C58.3311297,12.9732038 57.3653826,13.1663532 56.2386775,13.1663532 C55.3373135,13.1663532 54.4037579,13.0375869 53.4702023,12.7800544 Z" id="Path"></path>
                            <polygon id="Path" points="67.7954521 2.8328584 63.8036971 2.8328584 63.8036971 0.482873591 74.6844487 0.482873591 74.6844487 2.8328584 70.6926937 2.8328584 70.6926937 12.9732038 67.7954521 12.9732038 67.7954521 2.8328584"></polygon>
                            <path d="M85.5973918,10.2691117 L79.8029087,10.2691117 L78.7083953,12.9410122 L75.7467706,12.9410122 L81.3159127,0.450682018 L84.1809626,0.450682018 L89.7501047,12.9410122 L86.7240969,12.9410122 L85.5973918,10.2691117 Z M84.6960278,8.08008475 L82.7323419,3.31573199 L80.7686559,8.08008475 L84.6960278,8.08008475 Z" id="Shape"></path>
                            <path d="M100.791814,12.9410122 L98.3774462,9.46432238 L98.2486799,9.46432238 L95.7377372,9.46432238 L95.7377372,12.9410122 L92.8404957,12.9410122 L92.8404957,0.450682018 L98.2486799,0.450682018 C99.3431934,0.450682018 100.308941,0.643831454 101.11373,0.997938754 C101.918519,1.35204605 102.562351,1.89930279 102.980841,2.57532582 C103.431523,3.25134884 103.624673,4.05613816 103.624673,4.98969377 C103.624673,5.92324938 103.399332,6.7280387 102.94865,7.37187015 C102.497967,8.04789318 101.854136,8.56295834 101.049347,8.91706564 L103.850014,12.9410122 L100.791814,12.9410122 L100.791814,12.9410122 Z M100.051408,3.38011513 C99.600726,2.99381626 98.9247029,2.8328584 98.087722,2.8328584 L95.7377372,2.8328584 L95.7377372,7.17872071 L98.087722,7.17872071 C98.9568945,7.17872071 99.600726,6.98557128 100.051408,6.5992724 C100.50209,6.21297353 100.727431,5.69790837 100.727431,4.98969377 C100.727431,4.31367074 100.50209,3.76641401 100.051408,3.38011513 Z" id="Shape"></path>
                        </g>
                        <g transform="translate(0.000000, 12.554713)">
                            <path d="M11.299242,0.418490445 L8.49857519,4.44243703 C9.30336451,4.79654433 9.94719597,5.3116095 10.397878,5.98763252 C10.84856,6.66365555 11.073901,7.46844487 11.073901,8.3698089 C11.073901,9.30336451 10.84856,10.1081538 10.4300696,10.7841769 C9.97938754,11.4601999 9.36774766,11.975265 8.56295834,12.3615639 C7.75816902,12.7156712 6.79242184,12.9088207 5.69790837,12.9088207 L0.289724154,12.9088207 L0.289724154,0.418490445 L3.1869657,0.418490445 L3.1869657,3.8951803 L5.69790837,3.8951803 L5.82667466,3.8951803 L8.24104261,0.418490445 L11.299242,0.418490445 L11.299242,0.418490445 Z M8.14446789,8.3698089 C8.14446789,7.69378588 7.91912689,7.14652914 7.46844487,6.76023027 C7.01776285,6.3739314 6.34173982,6.18078196 5.50475893,6.18078196 L3.15477413,6.18078196 L3.15477413,10.5266443 L5.50475893,10.5266443 C6.3739314,10.5266443 7.01776285,10.3334948 7.46844487,9.97938754 C7.91912689,9.59308867 8.14446789,9.04583193 8.14446789,8.3698089 Z" id="Shape" fill="url(#linearGradient-4)"></path>
                            <polygon id="Path" fill="url(#linearGradient-5)" points="18.0272807 2.73628368 18.0272807 5.63352522 23.8217638 5.63352522 23.8217638 7.88693531 18.0272807 7.88693531 18.0272807 10.5910274 24.5943615 10.5910274 24.5943615 12.9088207 15.1622307 12.9088207 15.1622307 0.418490445 24.8197026 0.418490445 24.8197026 2.73628368 18.0272807 2.73628368"></polygon>
                            <path d="M28.9080323,0.418490445 L34.5737491,0.418490445 C35.9257951,0.418490445 37.1168833,0.676023027 38.1792052,1.19108819 C39.2093356,1.70615335 40.0141249,2.44655953 40.5935732,3.38011513 C41.1730215,4.31367074 41.4627456,5.40818421 41.4627456,6.66365555 C41.4627456,7.91912689 41.1730215,9.01364036 40.5935732,9.94719597 C40.0141249,10.8807516 39.2093356,11.6211577 38.1792052,12.1362229 C37.1490749,12.6512881 35.9257951,12.9088207 34.5737491,12.9088207 L28.9080323,12.9088207 L28.9080323,0.418490445 Z M31.7730823,2.76847525 L31.7730823,10.4944527 L34.4127912,10.4944527 C35.6682626,10.4944527 36.6662013,10.1403454 37.4066075,9.46432238 C38.1470137,8.75610778 38.5333125,7.82255217 38.5333125,6.63146398 C38.5333125,5.44037579 38.1470137,4.50682018 37.4066075,3.79860558 C36.6662013,3.09039098 35.6682626,2.76847525 34.4127912,2.76847525 L31.7730823,2.76847525 Z" id="Shape" fill="url(#linearGradient-6)"></path>
                            <path d="M56.3352522,0.193149436 C57.4619573,0.193149436 58.459896,0.3541073 59.2324938,0.7082146 C60.0372831,1.0623219 60.6167314,1.51300392 61.0352219,2.09245223 C61.4215207,2.67190053 61.6468617,3.31573199 61.6468617,4.05613816 C61.6468617,4.89311905 61.4215207,5.53695051 61.0030303,6.0198241 C60.5845398,6.50269769 60.0372831,6.85680499 59.4578348,7.082146 C58.8461949,7.307487 58.0735972,7.53282801 57.10785,7.75816902 C56.2064859,7.95131846 55.4982713,8.17665947 55.0797809,8.3698089 C54.6290989,8.56295834 54.4037579,8.88487407 54.4037579,9.33555608 C54.4037579,9.75404653 54.5969073,10.1081538 54.9832062,10.3656864 C55.3695051,10.623219 55.9811449,10.7519853 56.7859343,10.7519853 C57.9448309,10.7519853 59.1037275,10.4300696 60.2304325,9.7862381 L61.1317966,11.975265 C60.5523483,12.3293723 59.9085168,12.6190965 59.1359191,12.7800544 C58.3633213,12.9732038 57.5907236,13.0697785 56.7859343,13.0697785 C55.6592292,13.0697785 54.693482,12.9088207 53.8886927,12.5547134 C53.0839034,12.2006061 52.5044551,11.749924 52.1181562,11.1704757 C51.7318573,10.5910274 51.5387079,9.91500439 51.5387079,9.20678979 C51.5387079,8.3698089 51.7640489,7.69378588 52.1825394,7.21091229 C52.6010298,6.69584712 53.1482865,6.34173982 53.7277348,6.11639881 C54.3393747,5.89105781 55.1119725,5.6657168 56.0777197,5.44037579 C56.6893595,5.3116095 57.1722331,5.15065163 57.558532,5.05407691 C57.9126393,4.92531062 58.2023635,4.76435276 58.459896,4.57120332 C58.685237,4.37805389 58.8140033,4.12052131 58.8140033,3.83079715 C58.8140033,3.41230671 58.6208539,3.09039098 58.234555,2.86504997 C57.8482562,2.60751739 57.2366163,2.51094267 56.431827,2.51094267 C55.6914208,2.51094267 54.9510146,2.63970896 54.2106084,2.86504997 C53.4702023,3.09039098 52.8263708,3.41230671 52.3113056,3.79860558 L51.3455585,1.60957864 C51.8928152,1.19108819 52.6332214,0.83698089 53.566777,0.579448309 C54.4037579,0.321915727 55.3373135,0.193149436 56.3352522,0.193149436 Z" id="Path" fill="url(#linearGradient-7)"></path>
                            <polygon id="Path" fill="url(#linearGradient-8)" points="67.7954521 0.418490445 70.6926937 0.418490445 70.6926937 10.5588358 74.6844487 10.5588358 74.6844487 12.9088207 63.8036971 12.9088207 63.8036971 10.5588358 67.7954521 10.5588358 67.7954521 0.418490445"></polygon>
                            <path d="M86.7240969,0.418490445 L89.7501047,0.418490445 L84.1809626,12.9088207 L81.3159127,12.9088207 L75.7467706,0.418490445 L78.7083953,0.418490445 L79.8029087,3.09039098 L85.5973918,3.09039098 L86.7240969,0.418490445 Z M80.7364643,5.27941792 L82.7001503,10.0437707 L84.6638362,5.27941792 L80.7364643,5.27941792 Z" id="Shape" fill="url(#linearGradient-9)"></path>
                            <path d="M103.882205,0.418490445 L101.081538,4.44243703 C101.886328,4.79654433 102.530159,5.3116095 102.980841,5.98763252 C103.431523,6.66365555 103.656864,7.46844487 103.656864,8.3698089 C103.656864,9.30336451 103.431523,10.1081538 103.013033,10.7841769 C102.562351,11.4601999 101.950711,11.975265 101.145921,12.3615639 C100.341132,12.7156712 99.3753849,12.9088207 98.2808715,12.9088207 L92.8726873,12.9088207 L92.8726873,0.418490445 L95.7699288,0.418490445 L95.7699288,3.8951803 L98.2808715,3.8951803 L98.4096378,3.8951803 L100.824006,0.418490445 L103.882205,0.418490445 L103.882205,0.418490445 Z M100.727431,8.3698089 C100.727431,7.69378588 100.50209,7.14652914 100.051408,6.76023027 C99.600726,6.3739314 98.9247029,6.18078196 98.087722,6.18078196 L95.7377372,6.18078196 L95.7377372,10.5266443 L98.087722,10.5266443 C98.9568945,10.5266443 99.600726,10.3334948 100.051408,9.97938754 C100.50209,9.59308867 100.727431,9.04583193 100.727431,8.3698089 Z" id="Shape" fill="url(#linearGradient-10)"></path>
                        </g>
                    </g>
                </g>
            </g>
        </g>
    </g>
</svg>