<svg height="71" viewBox="0 0 159 71" width="159" xmlns="http://www.w3.org/2000/svg" xmlns:xlink="http://www.w3.org/1999/xlink"><linearGradient id="a" x1="-26.697805%" x2="105.341972%" y1="14.240398%" y2="91.297291%"><stop offset="0" stop-color="#f42525"/><stop offset="1" stop-color="#a01d1d"/></linearGradient><linearGradient id="b"><stop offset="0" stop-color="#ef4351"/><stop offset="1" stop-color="#c11414"/></linearGradient><linearGradient id="c" x1="-23.687619%" x2="99.99181%" xlink:href="#b" y1="49.991287%" y2="49.991287%"/><linearGradient id="d" x1="-.016943%" x2="99.993377%" xlink:href="#b" y1="49.987321%" y2="49.987321%"/><linearGradient id="e"><stop offset="0" stop-color="#fff"/><stop offset="1" stop-color="#fff" stop-opacity="0"/></linearGradient><linearGradient id="f" x1="46.128692%" x2="50.228539%" xlink:href="#e" y1="-199.430155%" y2="68.012629%"/><linearGradient id="g" x1="47.021154%" x2="50.175854%" xlink:href="#e" y1="-199.430155%" y2="68.012629%"/><linearGradient id="h" x1="45.017252%" x2="50.294152%" xlink:href="#e" y1="-196.878456%" y2="67.828358%"/><linearGradient id="i" x1="46.811041%" x2="50.188257%" xlink:href="#e" y1="-199.430155%" y2="68.012629%"/><linearGradient id="j" x1="46.218719%" x2="50.223225%" xlink:href="#e" y1="-199.430155%" y2="68.012629%"/><linearGradient id="k" x1="45.017252%" x2="50.294152%" xlink:href="#e" y1="-148.442136%" y2="64.330523%"/><g fill="none" fill-rule="evenodd"><g fill-rule="nonzero"><path d="m37.0904 54.2156 22.7484 16.5856-8.6052-27.0368 22.7484-15.9892h-27.6616l-9.23-27.6616-9.2016 27.6616h-27.6616l22.72 15.9892-8.6052 27.0368z" fill="url(#a)"/><path d="m38.908 55.522 13.0356-9.514-5.4528-15.5916-10.5932 22.9188z" fill="#931b1b"/><path d="m22.8052 43.6508.142.1136-8.6052 27.0368 22.7484-16.5856 14.1432-10.4512 3.1808-2.2436 19.5676-13.7456-51.12 15.904z" fill="url(#c)"/><path d="m27.8888 27.7752h-12.0132-15.6484l22.578 15.8756.0568.0284 51.12-15.904h-27.6616z" fill="url(#d)"/><path d="m27.8888 27.7752h-12.0132-15.6484l22.578 15.8756.0568.0284 51.12-15.904h-27.6616z" fill="#fff" opacity=".11"/></g><text fill="#fff" font-family="Montserrat-Bold, Montserrat" font-size="15.7288" font-weight="bold" letter-spacing="1.59039997"><tspan x="63.675356" y="52.557069">RED STAR</tspan></text><g fill-rule="nonzero" transform="translate(64.752 52.54)"><path d="m9.9684.3692-2.4708 3.55c.71.3124 1.278.7668 1.6756 1.3632s.5964 1.3064.5964 2.1016c0 .8236-.1988 1.5336-.568 2.13-.3976.5964-.9372 1.0508-1.6472 1.3916-.71.3124-1.562.4828-2.5276.4828h-4.7712v-11.0192h2.556v3.0672h2.2152.1136l2.13-3.0672zm-2.7832 7.0148c0-.5964-.1988-1.0792-.5964-1.42s-.994-.5112-1.7324-.5112h-2.0732v3.834h2.0732c.7668 0 1.3348-.1704 1.7324-.4828.3976-.3408.5964-.8236.5964-1.42z" fill="url(#f)"/><path d="m15.904 2.414v2.556h5.112v1.988h-5.112v2.3856h5.7936v2.0448h-8.3212v-11.0192h8.52v2.0448z" fill="url(#g)"/><path d="m25.5032.3692h4.9984c1.1928 0 2.2436.2272 3.1808.6816.9088.4544 1.6188 1.1076 2.13 1.9312s.7668 1.7892.7668 2.8968-.2556 2.0732-.7668 2.8968-1.2212 1.4768-2.13 1.9312-1.988.6816-3.1808.6816h-4.9984zm2.5276 2.0732v6.816h2.3288c1.1076 0 1.988-.3124 2.6412-.9088.6532-.6248.994-1.4484.994-2.4992s-.3408-1.8744-.994-2.4992-1.5336-.9088-2.6412-.9088z" fill="url(#h)"/><path d="m49.7.1704c.994 0 1.8744.142 2.556.4544.71.3124 1.2212.71 1.5904 1.2212.3408.5112.5396 1.0792.5396 1.7324 0 .7384-.1988 1.3064-.568 1.7324s-.852.7384-1.3632.9372c-.5396.1988-1.2212.3976-2.0732.5964-.7952.1704-1.42.3692-1.7892.5396-.3976.1704-.5964.4544-.5964.852 0 .3692.1704.6816.5112.9088s.8804.3408 1.5904.3408c1.0224 0 2.0448-.284 3.0388-.852l.7952 1.9312c-.5112.3124-1.0792.568-1.7608.71-.6816.1704-1.3632.2556-2.0732.2556-.994 0-1.846-.142-2.556-.4544s-1.2212-.71-1.562-1.2212-.5112-1.1076-.5112-1.7324c0-.7384.1988-1.3348.568-1.7608.3692-.4544.852-.7668 1.3632-.9656.5396-.1988 1.2212-.3976 2.0732-.5964.5396-.1136.9656-.2556 1.3064-.3408.3124-.1136.568-.2556.7952-.426.1988-.1704.3124-.3976.3124-.6532 0-.3692-.1704-.6532-.5112-.852-.3408-.2272-.8804-.3124-1.5904-.3124-.6532 0-1.3064.1136-1.9596.3124s-1.2212.4828-1.6756.8236l-.852-1.9312c.4828-.3692 1.136-.6816 1.9596-.9088.7384-.2272 1.562-.3408 2.4424-.3408z" fill="url(#i)"/><path d="m59.8104.3692h2.556v8.946h3.5216v2.0732h-9.5992v-2.0732h3.5216z" fill="url(#j)"/><path d="m76.5096.3692h2.6696l-4.9132 11.0192h-2.5276l-4.9132-11.0192h2.6128l.9656 2.3572h5.112zm-5.2824 4.2884 1.7324 4.2032 1.7324-4.2032z" fill="url(#k)"/><path d="m91.6468.3692-2.4708 3.55c.71.3124 1.278.7668 1.6756 1.3632s.5964 1.3064.5964 2.1016c0 .8236-.1988 1.5336-.568 2.13-.3976.5964-.9372 1.0508-1.6472 1.3916-.71.3124-1.562.4828-2.5276.4828h-4.7712v-11.0192h2.556v3.0672h2.2152.1136l2.13-3.0672zm-2.7832 7.0148c0-.5964-.1988-1.0792-.5964-1.42s-.994-.5112-1.7324-.5112h-2.0732v3.834h2.0732c.7668 0 1.3348-.1704 1.7324-.4828.3976-.3408.5964-.8236.5964-1.42z" fill="url(#f)"/></g></g></svg>