<svg height="36" viewBox="0 0 32 36" width="32" xmlns="http://www.w3.org/2000/svg" xmlns:xlink="http://www.w3.org/1999/xlink"><mask id="a" fill="#fff"><path d="m0 0h32v32h-32z" fill="#fff" fill-rule="evenodd"/></mask><g fill="none" fill-rule="evenodd"><path d="m4 0h24v36h-24z" fill="#f8f8f8"/><g mask="url(#a)" stroke-linejoin="round" transform="translate(0 2)"><g stroke="#4d4d4d" stroke-width="1.5" transform="matrix(-.54463904 .83867057 -.83867057 -.54463904 30.306787 8.994703)"><g fill="#fff" fill-rule="evenodd" transform="translate(0 5.696234)"><path d="m0 1.32130964c0 6.58866017 5.96953667 11.92982456 13.3333333 11.92982456 7.3637967 0 13.3333334-5.34116439 13.3333334-11.92982456z"/><path d="m12.8984127 1.42744121 9.8245614 9.33333329c-3.2748538 2.6666667-6.5497076 4-9.8245614 4-3.27485378 0-6.54970758-1.3333333-9.82456138-4z"/></g><path d="m16.1403509 7.01754386c4.2105263-4.67836257 6.5497076-7.01754386 7.0175438-7.01754386.7017544 0 2.8070176 2.10526316 2.8070176 6.31578947"/><path d="m.70175439 7.01754386c4.21052631-4.67836257 6.5497076-7.01754386 7.01754386-7.01754386.70175438 0 2.80701755 2.10526316 2.80701755 6.31578947" transform="matrix(-1 0 0 1 11.22807 0)"/></g></g></g></svg>