<?xml version="1.0" encoding="UTF-8"?>
<svg width="35px" height="23px" viewBox="0 0 35 23" version="1.1" xmlns="http://www.w3.org/2000/svg" xmlns:xlink="http://www.w3.org/1999/xlink">
    <title>ps-mc-ondark</title>
    <g id="Design" stroke="none" stroke-width="1" fill="none" fill-rule="evenodd">
        <g id="О-НАС---компания" transform="translate(-536.000000, -1787.000000)">
            <g id="Group-54" transform="translate(0.000000, 1552.000000)">
                <g id="Group-4" transform="translate(454.000000, 235.000000)">
                    <g id="Icons/Board/Payment-System/ic_18px_payment_system" transform="translate(82.000000, 0.000000)">
                        <path d="M23.3472,0 C29.4550275,0 34.4064,4.9513725 34.4064,11.0592 C34.4064,17.1670275 29.4550275,22.1184 23.3472,22.1184 C21.0736443,22.1184 18.960327,21.4323382 17.2029786,20.2559451 C20.1673273,18.2716541 22.1184,14.8932758 22.1184,11.0592 C22.1184,7.22512421 20.1673273,3.84674587 17.203876,1.86275918 C18.960327,0.686061843 21.0736443,0 23.3472,0 Z" id="Combined-Shape" fill="#DFDFDF"></path>
                        <path d="M11.0592,0 C13.3329923,0 15.4465129,0.686204644 17.2039701,1.86282217 C14.2392722,3.84640042 12.288,7.22492818 12.288,11.0592 C12.288,14.8934718 14.2392722,18.2719996 17.2029786,20.2559451 C15.4465129,21.4321954 13.3329923,22.1184 11.0592,22.1184 C4.9513725,22.1184 0,17.1670275 0,11.0592 C0,4.9513725 4.9513725,0 11.0592,0 Z" id="Combined-Shape" fill="#9F9F9F"></path>
                        <path d="M17.2039701,1.86282217 C20.1673686,3.84681738 22.1184,7.22516479 22.1184,11.0592 C22.1184,14.8932352 20.1673686,18.2715826 17.2039701,20.2555778 C14.2392722,18.2719996 12.288,14.8934718 12.288,11.0592 C12.288,7.27816393 14.1854647,3.94030449 17.0801206,1.94589528 Z" id="Combined-Shape" fill="#9F9F9F"></path>
                    </g>
                </g>
            </g>
        </g>
    </g>
</svg>