<svg height="98" viewBox="0 0 98 98" width="98" xmlns="http://www.w3.org/2000/svg"><g fill="none" transform="translate(9.33 15.863333)"><path d="m5.37 7.003333h66.966667v9.8h-66.966667z" fill="#fff"/><path d="m20.07.47h14.7c2.45 0 3.2666667.81666667 4.0833333 2.12333333l3.2666667 6.04333334c.8166667 1.63333333 2.45 3.26666663 5.7166667 3.26666663h24.5c3.5933333 0 6.5333333 2.94 6.5333333 6.5333334v39.2c0 3.5933333-2.94 6.5333333-6.5333333 6.5333333h-65.33333337c-3.59333333 0-6.53333333-2.94-6.53333333-6.5333333v-39.2c0-3.5933334 2.94-6.5333334 6.53333333-6.5333334 3.26666667 0 4.89999997-1.6333333 5.71666667-3.26666663l3.2666667-6.04333334c.8166666-1.30666666 1.6333333-2.12333333 4.0833333-2.12333333z" fill="#fff" stroke="#4d4d4d" stroke-width="2"/><path d="m20.07 25.1333333c-2.6133333 0-4.7366667 2.1233334-4.7366667 4.7366667h2.94c0-.98.8166667-1.7966667 1.7966667-1.7966667zm27.7666667 2.94c.98 0 1.7966666.8166667 1.7966666 1.7966667h2.94c0-2.6133333-2.1233333-4.7366667-4.7366666-4.7366667zm1.7966666 23.03c0 .98-.8166666 1.7966667-1.7966666 1.7966667v2.94c2.6133333 0 4.7366666-2.1233333 4.7366666-4.7366667zm-29.5633333 1.7966667c-.98 0-1.7966667-.8166667-1.7966667-1.7966667h-2.94c0 2.6133334 2.1233334 4.7366667 4.7366667 4.7366667zm-1.7966667-1.7966667v-21.2333333h-2.94v21.2333333zm29.5633334 1.7966667h-27.7666667v2.94h27.7666667zm1.7966666-23.03v21.2333333h2.94v-21.2333333zm-29.5633333-1.7966667h27.7666667v-2.94h-27.7666667z" fill="#4d4d4d"/><path d="m15.17 24.97h31.033333v21.233333h-31.033333z" fill="#fff"/><path d="m42.7733333 49.47v-1.1433333h-2.94v1.1433333zm-16.17 1.47h14.7v-2.94h-14.7zm-1.47-2.6133333v1.1433333h2.94v-1.1433333zm8.82-8.4933334c-4.7366666 0-8.82 3.7566667-8.82 8.4933334h2.94c0-2.94 2.6133334-5.5533334 5.88-5.5533334zm0 2.94c3.2666667 0 5.88 2.6133334 5.88 5.5533334h2.94c0-4.7366667-4.0833333-8.4933334-8.82-8.4933334zm7.35 6.6966667v1.47h1.47v-1.47zm-14.7 0h-1.47v1.47h1.47z" fill="#4d4d4d"/><path d="m29.87 48c0-4.5733333-4.41-8.33-9.8-8.33s-9.8 3.7566667-9.8 8.33v1.47h19.6z" fill="#fff"/><path d="m31.34 49.47v-1.47h-2.94v1.47zm-21.07 1.47h19.6v-2.94h-19.6zm-1.47-2.94v1.47h2.94v-1.47zm11.27-9.8c-6.0433333 0-11.27 4.2466667-11.27 9.8h2.94c0-3.5933333 3.43-6.86 8.33-6.86zm0 2.94c4.9 0 8.33 3.2666667 8.33 6.86h2.94c0-5.7166667-5.2266667-9.8-11.27-9.8zm9.8 8.33v1.47h1.47v-1.47zm-19.6 0h-1.47v1.47h1.47z" fill="#4d4d4d"/><circle cx="20.07" cy="30.686667" fill="#fff" r="4.9"/><path d="m20.07 27.2566667c1.96 0 3.43 1.47 3.43 3.43h2.94c0-3.5933334-2.7766667-6.37-6.37-6.37zm-3.43 3.43c0-1.96 1.47-3.43 3.43-3.43v-2.94c-3.5933333 0-6.37 2.7766666-6.37 6.37zm3.43 3.43c-1.96 0-3.43-1.47-3.43-3.43h-2.94c0 3.5933333 2.7766667 6.37 6.37 6.37zm3.43-3.43c0 1.96-1.47 3.43-3.43 3.43v2.94c3.5933333 0 6.37-2.7766667 6.37-6.37z" fill="#4d4d4d"/><circle cx="33.953333" cy="33.136667" fill="#fff" r="4.083333"/><path d="m33.9533333 30.5233333c1.47 0 2.6133334 1.1433334 2.6133334 2.6133334h2.94c0-3.1033334-2.45-5.5533334-5.5533334-5.5533334zm-2.6133333 2.6133334c0-1.47 1.1433333-2.6133334 2.6133333-2.6133334v-2.94c-3.1033333 0-5.5533333 2.45-5.5533333 5.5533334zm2.6133333 2.6133333c-1.47 0-2.6133333-1.1433333-2.6133333-2.6133333h-2.94c0 3.1033333 2.45 5.5533333 5.5533333 5.5533333zm2.6133334-2.6133333c0 1.47-1.1433334 2.6133333-2.6133334 2.6133333v2.94c3.1033334 0 5.5533334-2.45 5.5533334-5.5533333z" fill="#4d4d4d"/><path d="m13.5366667 15.0066667c-4.57333337 0-8.33000003 3.7566666-8.33000003 8.33h10.12666663c0 .98-.8166666 1.7966666-1.7966666 1.7966666zm27.7666666 10.1266666c-.98 0-1.7966666-.8166666-1.7966666-1.7966666h10.1266666c0-4.5733334-3.7566666-8.33-8.33-8.33zm-1.7966666 19.4366667c0-.98.8166666-1.7966667 1.7966666-1.7966667v10.1266667c4.5733334 0 8.33-3.7566667 8.33-8.33zm-25.97-1.7966667c.98 0 1.7966666.8166667 1.7966666 1.7966667h-10.12666663c0 4.5733333 3.75666666 8.33 8.33000003 8.33zm1.7966666 1.7966667v-21.2333333h-10.12666663v21.2333333zm25.97-1.7966667h-27.7666666v10.1266667h27.7666666zm-1.7966666-19.4366666v21.2333333h10.1266666v-21.2333333zm-25.97 1.7966666h27.7666666v-10.1266666h-27.7666666z" fill="#fff"/><g fill="#4d4d4d"><path d="m13.5366667 18.6c-2.6133334 0-4.7366667 2.1233333-4.7366667 4.7366667h2.94c0-.98.8166667-1.7966667 1.7966667-1.7966667zm27.7666666 2.94c.98 0 1.7966667.8166667 1.7966667 1.7966667h2.94c0-2.6133334-2.1233333-4.7366667-4.7366667-4.7366667zm1.7966667 23.03c0 .98-.8166667 1.7966667-1.7966667 1.7966667v2.94c2.6133334 0 4.7366667-2.1233334 4.7366667-4.7366667zm-29.5633333 1.7966667c-.98 0-1.7966667-.8166667-1.7966667-1.7966667h-2.94c0 2.6133333 2.1233333 4.7366667 4.7366667 4.7366667zm-1.7966667-1.7966667v-21.2333333h-2.94v21.2333333zm29.5633333 1.7966667h-27.7666666v2.94h27.7666666zm1.7966667-23.03v21.2333333h2.94v-21.2333333zm-29.5633333-1.7966667h27.7666666v-2.94h-27.7666666z"/><path d="m65.8033333 23.5c-2.6133333 0-4.7366666 2.1233333-4.7366666 4.7366667h2.94c0-.98.8166666-1.7966667 1.7966666-1.7966667zm0 2.94c.98 0 1.7966667.8166667 1.7966667 1.7966667h2.94c0-2.6133334-2.1233333-4.7366667-4.7366667-4.7366667zm1.7966667 21.3966667c0 .98-.8166667 1.7966666-1.7966667 1.7966666v2.94c2.6133334 0 4.7366667-2.1233333 4.7366667-4.7366666zm-1.7966667 1.7966666c-.98 0-1.7966666-.8166666-1.7966666-1.7966666h-2.94c0 2.6133333 2.1233333 4.7366666 4.7366666 4.7366666zm-1.7966666-1.7966666v-19.6h-2.94v19.6zm3.5933333-19.6v19.6h2.94v-19.6z"/><path d="m62.536667 33.3h6.533333v2.94h-6.533333z"/><path d="m62.536667 39.833333h6.533333v2.94h-6.533333z"/></g><path d="m59.27 36.24h13.066667v3.593333h-13.066667z" fill="#fff"/><path d="m23.3366667 3.9c-2.6133334 0-4.7366667 2.12333333-4.7366667 4.73666667h2.94c0-.98.8166667-1.79666667 1.7966667-1.79666667zm8.1666666 2.94c.98 0 1.7966667.81666667 1.7966667 1.79666667h2.94c0-2.61333334-2.1233333-4.73666667-4.7366667-4.73666667zm1.7966667 1.79666667c0 .98-.8166667 1.79666663-1.7966667 1.79666663v2.94c2.6133334 0 4.7366667-2.1233333 4.7366667-4.73666663zm-9.9633333 1.79666663c-.98 0-1.7966667-.81666663-1.7966667-1.79666663h-2.94c0 2.61333333 2.1233333 4.73666663 4.7366667 4.73666663zm8.1666666 0h-8.1666666v2.94h8.1666666zm-8.1666666-3.5933333h8.1666666v-2.94h-8.1666666z" fill="#4d4d4d"/></g></svg>