<?xml version="1.0" encoding="UTF-8"?>
<svg width="95px" height="95px" viewBox="0 0 95 95" version="1.1" xmlns="http://www.w3.org/2000/svg" xmlns:xlink="http://www.w3.org/1999/xlink">
    <title>Group 2</title>
    <g id="Design" stroke="none" stroke-width="1" fill="none" fill-rule="evenodd">
        <g id="ТУР" transform="translate(-448.000000, -941.000000)">
            <g id="Group-2" transform="translate(448.000000, 941.000000)">
                <g>
                    <path d="M47.5,85.952381 C67.5707008,85.952381 83.6904762,69.5165315 83.6904762,49.7619048 L80.8458099,49.7619048 C80.8458099,68.0941984 65.9903306,83.1077147 47.5,83.1077147 L47.5,85.952381 Z M11.3095238,49.7619048 C11.3095238,69.8326055 27.4292992,85.952381 47.5,85.952381 L47.5,83.1077147 C29.0096694,83.1077147 14.1541901,68.2522354 14.1541901,49.7619048 L11.3095238,49.7619048 Z M47.5,13.5714286 C27.4292992,13.5714286 11.3095238,29.691204 11.3095238,49.7619048 L14.1541901,49.7619048 C14.1541901,31.2715741 29.0096694,16.4160948 47.5,16.4160948 L47.5,13.5714286 Z M83.6904762,49.7619048 C83.6904762,29.691204 67.5707008,13.5714286 47.5,13.5714286 L47.5,16.4160948 C65.9903306,16.4160948 80.8458099,31.2715741 80.8458099,49.7619048 L83.6904762,49.7619048 Z" id="Shape" fill="#4D4D4D" fill-rule="nonzero"></path>
                    <rect id="Rectangle" fill="#FFFFFF" fill-rule="nonzero" x="42.9761905" y="11.3095238" width="9.04761905" height="61.0714286"></rect>
                    <g id="Group" transform="translate(13.571429, 31.666667)" fill-rule="nonzero">
                        <polygon id="Rectangle" fill="#FFFFFF" points="0 32.328262 54.0939787 0 58.8095238 8.38602372 4.71554513 40.7142857"></polygon>
                        <polygon id="Rectangle" fill="#4D4D4D" points="2.26190476 33.6862852 55.120064 2.26190476 56.547619 4.76609575 3.68945983 36.1904762"></polygon>
                    </g>
                    <rect id="Rectangle" fill="#4D4D4D" fill-rule="nonzero" x="45.2380952" y="13.5714286" width="4.52380952" height="61.0714286"></rect>
                    <path d="M76.9047619,48.6309524 C76.9047619,32.9232804 63.8359788,20.3571429 47.5,20.3571429 C31.1640212,20.3571429 18.0952381,32.9232804 18.0952381,48.6309524 C18.0952381,64.3386243 31.1640212,76.9047619 47.5,76.9047619 C63.8359788,76.9047619 76.9047619,64.1815476 76.9047619,48.6309524 Z" id="Path" fill="#FFFFFF" fill-rule="nonzero"></path>
                    <path d="M32.797619,49.7619048 C38.0753968,44.2930614 40.7142857,40.1172372 40.7142857,37.2344322 C40.7142857,32.9102247 37.1698733,29.4047619 32.797619,29.4047619 C28.4253648,29.4047619 24.8809524,32.9102247 24.8809524,37.2344322 C24.8809524,40.1172372 27.5198413,44.2930614 32.797619,49.7619048 Z" id="Oval" stroke="#4D4D4D" stroke-width="1.8"></path>
                    <path d="M29.4047619,60.0489237 C33.0238095,66.090998 39.7683983,70.1190476 47.5,70.1190476 L47.5,67.3303979 C40.7554113,67.3303979 34.9978355,63.9220483 32.0367965,58.8095238 L29.4047619,60.0489237 Z M47.5,70.1190476 C58.8807649,70.1190476 67.8571429,60.8084164 67.8571429,49.7619048 L64.9718785,49.7619048 C64.9718785,59.3881506 57.2778403,67.2785161 47.5,67.2785161 L47.5,70.1190476 L47.5,70.1190476 Z M67.8571429,49.7619048 C67.8571429,38.3997785 58.8807649,29.4047619 47.5,29.4047619 L47.5,32.2452935 C57.1175478,32.2452935 64.9718785,39.9778516 64.9718785,49.7619048 L67.8571429,49.7619048 Z" id="Shape" fill="#4D4D4D" fill-rule="nonzero"></path>
                    <path d="M52.0238095,49.7619048 L52.0238095,24.8809524 L42.9761905,24.8809524 L42.9761905,49.7619048 L52.0238095,49.7619048 Z M29.546131,65.5952381 L49.7619048,53.5733033 L45.0967262,45.2380952 L24.8809524,57.26003 L29.546131,65.5952381 Z M47.5,49.7619048 L49.7619048,54.2857143 L52.0238095,52.7197802 L52.0238095,49.7619048 L47.5,49.7619048 Z" id="Shape" fill="#FFFFFF" fill-rule="nonzero"></path>
                    <rect id="Rectangle" fill="#FFFFFF" fill-rule="nonzero" x="29.4047619" y="61.0714286" width="9.04761905" height="4.52380952"></rect>
                    <polygon id="Path" fill="#4D4D4D" fill-rule="nonzero" points="49.7619048 49.7619048 49.7619048 27.1428571 45.2380952 27.1428571 45.2380952 49.7619048"></polygon>
                    <polygon id="Path" fill="#4D4D4D" fill-rule="nonzero" points="28.5631229 61.0714286 47.5 50.0249169 46.0797342 47.5 27.1428571 58.5465116"></polygon>
                    <polygon id="Path" fill="#4D4D4D" fill-rule="nonzero" points="47.6130952 49.875 48.7440476 50.7797619 49.6488095 50.4404762 49.6488095 49.875"></polygon>
                    <path d="M38.452381,69.3479437 L36.7768959,63.3333333 L33.9285714,64.1044372 L35.6040564,70.1190476 L38.452381,69.3479437 Z M36.9615801,65.5952381 L42.9761905,63.9197531 L42.2050866,61.0714286 L36.1904762,62.7469136 L36.9615801,65.5952381 Z M36.1904762,64.258658 L35.7792208,63.3333333 L33.9285714,63.538961 L34.3398268,64.4642857 L36.1904762,64.258658 Z" id="Shape" fill="#4D4D4D" fill-rule="nonzero"></path>
                </g>
                <circle id="Oval" stroke="#4D4D4D" stroke-width="1.8" cx="32.5" cy="35.5" r="3.5"></circle>
            </g>
        </g>
    </g>
</svg>