<svg height="95" viewBox="0 0 95 95" width="95" xmlns="http://www.w3.org/2000/svg"><g fill="none" fill-rule="evenodd"><g><path d="m47.5 85.952381c20.0707008 0 36.1904762-16.4358495 36.1904762-36.1904762h-2.8446663c0 18.3322936-14.8554793 33.3458099-33.3458099 33.3458099zm-36.1904762-36.1904762c0 20.0707007 16.1197754 36.1904762 36.1904762 36.1904762v-2.8446663c-18.4903306 0-33.3458099-14.8554793-33.3458099-33.3458099zm36.1904762-36.1904762c-20.0707008 0-36.1904762 16.1197754-36.1904762 36.1904762h2.8446663c0-18.4903307 14.8554793-33.34581 33.3458099-33.34581zm36.1904762 36.1904762c0-20.0707008-16.1197754-36.1904762-36.1904762-36.1904762v2.8446662c18.4903306 0 33.3458099 14.8554793 33.3458099 33.34581z" fill="#4d4d4d" fill-rule="nonzero"/><path d="m42.976191 11.309524h9.047619v61.071429h-9.047619z" fill="#fff" fill-rule="nonzero"/><g fill-rule="nonzero" transform="translate(13.571429 31.666667)"><path d="m0 32.328262 54.0939787-32.328262 4.7155451 8.38602372-54.09397867 32.32826198z" fill="#fff"/><path d="m2.26190476 33.6862852 52.85815924-31.42438044 1.427555 2.50419099-52.85815917 31.42438045z" fill="#4d4d4d"/></g><path d="m45.238095 13.571429h4.52381v61.071429h-4.52381z" fill="#4d4d4d" fill-rule="nonzero"/><path d="m76.9047619 48.6309524c0-15.707672-13.0687831-28.2738095-29.4047619-28.2738095s-29.4047619 12.5661375-29.4047619 28.2738095c0 15.7076719 13.0687831 28.2738095 29.4047619 28.2738095s29.4047619-12.7232143 29.4047619-28.2738095z" fill="#fff" fill-rule="nonzero"/><path d="m32.797619 49.7619048c5.2777778-5.4688434 7.9166667-9.6446676 7.9166667-12.5274726 0-4.3242075-3.5444124-7.8296703-7.9166667-7.8296703-4.3722542 0-7.9166666 3.5054628-7.9166666 7.8296703 0 2.882805 2.6388889 7.0586292 7.9166666 12.5274726z" stroke="#4d4d4d" stroke-width="1.8"/><g fill-rule="nonzero"><path d="m29.4047619 60.0489237c3.6190476 6.0420743 10.3636364 10.0701239 18.0952381 10.0701239v-2.7886497c-6.7445887 0-12.5021645-3.4083496-15.4632035-8.5208741zm18.0952381 10.0701239c11.3807649 0 20.3571429-9.3106312 20.3571429-20.3571428h-2.8852644c0 9.6262458-7.6940382 17.5166113-17.4718785 17.5166113zm20.3571429-20.3571428c0-11.3621263-8.976378-20.3571429-20.3571429-20.3571429v2.8405316c9.6175478 0 17.4718785 7.7325581 17.4718785 17.5166113z" fill="#4d4d4d"/><path d="m52.0238095 49.7619048v-24.8809524h-9.047619v24.8809524zm-22.4776785 15.8333333 20.2157738-12.0219348-4.6651786-8.3352081-20.2157738 12.0219348zm17.953869-15.8333333 2.2619048 4.5238095 2.2619047-1.5659341v-2.9578754z" fill="#fff"/><path d="m29.404762 61.071429h9.047619v4.52381h-9.047619z" fill="#fff"/><path d="m49.7619048 49.7619048v-22.6190477h-4.5238096v22.6190477z" fill="#4d4d4d"/><path d="m28.5631229 61.0714286 18.9368771-11.0465117-1.4202658-2.5249169-18.9368771 11.0465116z" fill="#4d4d4d"/><path d="m47.6130952 49.875 1.1309524.9047619.9047619-.3392857v-.5654762z" fill="#4d4d4d"/><path d="m38.452381 69.3479437-1.6754851-6.0146104-2.8483245.7711039 1.675485 6.0146104zm-1.4908009-3.7527056 6.0146104-1.675485-.7711039-2.8483245-6.0146104 1.675485zm-.7711039-1.3365801-.4112554-.9253247-1.8506494.2056277.4112554.9253247z" fill="#4d4d4d"/></g></g><circle cx="32.5" cy="35.5" r="3.5" stroke="#4d4d4d" stroke-width="1.8"/></g></svg>